<svg width="22" height="20" viewBox="0 0 22 20" fill="none" xmlns="http://www.w3.org/2000/svg">
<path d="M21.2554 7.15737L20.7434 5.3867L19.5594 2.00537C19.3615 1.4236 18.989 0.917014 18.4927 0.554705C17.9902 0.191135 17.385 -0.00312272 16.7647 3.79666e-05H4.53005C3.90886 -0.00117261 3.30274 0.191339 2.7961 0.550771C2.28945 0.910203 1.90749 1.41867 1.70338 2.00537L0.498049 5.42937L0.00738193 7.15737C-0.00246064 7.23171 -0.00246064 7.30703 0.00738193 7.38137C0.0109833 8.12677 0.217398 8.85713 0.604494 9.49415C0.991589 10.1312 1.54477 10.6508 2.20472 10.9974V16.1494C2.20187 16.5452 2.27773 16.9376 2.42789 17.3038C2.57804 17.6701 2.7995 18.0028 3.07938 18.2827C3.6474 18.8441 4.41411 19.1584 5.21271 19.1574H16.178C16.5721 19.1588 16.9625 19.0822 17.3267 18.9321C17.691 18.782 18.022 18.5612 18.3006 18.2826C18.5792 18.004 18.8 17.673 18.9501 17.3087C19.1002 16.9444 19.1768 16.554 19.1754 16.16V11.008C19.7503 10.7115 20.2445 10.2795 20.6154 9.74937C21.1037 9.06054 21.3648 8.23641 21.362 7.39204C21.3329 7.31107 21.2972 7.2326 21.2554 7.15737ZM13.906 16.1174H7.32471C7.04182 16.1174 6.77051 16.005 6.57047 15.805C6.37043 15.6049 6.25805 15.3336 6.25805 15.0507C6.25805 14.7678 6.37043 14.4965 6.57047 14.2965C6.77051 14.0964 7.04182 13.984 7.32471 13.984H13.906C14.1889 13.984 14.4603 14.0964 14.6603 14.2965C14.8603 14.4965 14.9727 14.7678 14.9727 15.0507C14.9727 15.3336 14.8603 15.6049 14.6603 15.805C14.4603 16.005 14.1889 16.1174 13.906 16.1174ZM19.2394 8.8107C18.9386 9.2363 18.514 9.55737 18.0234 9.72804C17.6539 9.85329 17.2599 9.88863 16.874 9.83113C16.4882 9.77362 16.1216 9.62492 15.8047 9.39737C15.4858 9.17227 15.2242 8.87552 15.0408 8.53095C14.8574 8.18639 14.7573 7.80361 14.7487 7.41337C14.7487 7.2012 14.6644 6.99771 14.5144 6.84769C14.3644 6.69766 14.1609 6.61337 13.9487 6.61337C13.7365 6.61337 13.5331 6.69766 13.383 6.84769C13.233 6.99771 13.1487 7.2012 13.1487 7.41337V7.4667C13.1408 7.73604 13.0904 8.00243 12.9994 8.25604C12.8203 8.73724 12.5007 9.15348 12.082 9.4507C11.6692 9.74901 11.1727 9.90951 10.6634 9.90937C10.1463 9.91039 9.64189 9.74941 9.221 9.44905C8.80011 9.14868 8.48387 8.72402 8.31672 8.2347C8.21872 7.98676 8.16807 7.72264 8.16738 7.45604C8.16738 7.24387 8.0831 7.04038 7.93307 6.89035C7.78304 6.74032 7.57955 6.65604 7.36738 6.65604C7.15521 6.65604 6.95173 6.74032 6.8017 6.89035C6.65167 7.04038 6.56738 7.24387 6.56738 7.45604C6.55874 7.84776 6.45878 8.23206 6.27545 8.57835C6.09212 8.92463 5.83049 9.22334 5.51138 9.4507C5.09063 9.74936 4.58736 9.90967 4.07138 9.90937C3.79164 9.90132 3.51472 9.85097 3.25005 9.76004C2.76234 9.59319 2.34026 9.27569 2.04472 8.85337C1.77204 8.46436 1.61657 8.00535 1.59672 7.5307L2.03405 5.95204L3.21805 2.58137C3.31347 2.30676 3.49218 2.06875 3.72926 1.9005C3.96634 1.73225 4.25 1.64213 4.54071 1.6427H16.7754C17.0634 1.64697 17.346 1.73657 17.586 1.8987C17.8196 2.06937 17.9946 2.30724 18.0874 2.58137L19.2607 5.90937L19.7194 7.5307C19.6748 7.99575 19.5012 8.43909 19.218 8.8107H19.2394Z" fill="white"/>
</svg>
